{
  "source": "C:\\Users\\Peter\\Desktop\\stuff\\MIUN\\quantitative_research\\video_compression\\videos\\BVI-HD\\BallUnderWater_1920x1080_60fps.mp4",
  "output": "C:\\Users\\Peter\\Desktop\\stuff\\MIUN\\quantitative_research\\video_compression\\compressed_videos\\BVI-HD\\h264\\12\\BallUnderWater_1920x1080_60fps_h264.mp4",
  "codec": "h264",
  "ok": "Input #0, mov,mp4,m4a,3gp,3g2,mj2, from 'C:\\Users\\Peter\\Desktop\\stuff\\MIUN\\quantitative_research\\video_compression\\videos\\BVI-HD\\BallUnderWater_1920x1080_60fps.mp4':\n  Metadata:\n    major_brand     : isom\n    minor_version   : 512\n    compatible_brands: isomiso2avc1mp41\n    encoder         : Lavf54.28.101\n  Duration: 00:00:05.00, start: 0.000000, bitrate: 212030 kb/s\n  Stream #0:0[0x1](und): Video: h264 (High 4:4:4 Predictive) (avc1 / 0x31637661), yuv420p(progressive), 1920x1080, 212025 kb/s, 60 fps, 60 tbr, 60 tbn (default)\n    Metadata:\n      handler_name    : VideoHandler\n      vendor_id       : [0][0][0][0]\n[out#0/mp4 @ 0000014454081580] Codec AVOption b:a (set bitrate (in bits/s)) has not been used for any stream. The most likely reason is either wrong type (e.g. a video option with no video streams) or that it is a private option of some decoder which was not actually used for any stream.\nStream mapping:\n  Stream #0:0 -> #0:0 (h264 (native) -> h264 (libx264))\nPress [q] to stop, [?] for help\n[libx264 @ 000001445468ebc0] using cpu capabilities: MMX2 SSE2Fast SSSE3 SSE4.2 AVX FMA3 BMI2 AVX2\n[libx264 @ 000001445468ebc0] profile High, level 5.0, 4:2:0, 8-bit\n[libx264 @ 000001445468ebc0] 264 - core 165 r3222 b35605a - H.264/MPEG-4 AVC codec - Copyleft 2003-2025 - http://www.videolan.org/x264.html - options: cabac=1 ref=5 deblock=1:0:0 analyse=0x3:0x113 me=hex subme=8 psy=1 psy_rd=1.00:0.00 mixed_ref=1 me_range=16 chroma_me=1 trellis=2 8x8dct=1 cqm=0 deadzone=21,11 fast_pskip=1 chroma_qp_offset=-2 threads=18 lookahead_threads=3 sliced_threads=0 nr=0 decimate=1 interlaced=0 bluray_compat=0 constrained_intra=0 bframes=3 b_pyramid=2 b_adapt=1 b_bias=0 direct=3 weightb=1 open_gop=0 weightp=2 keyint=250 keyint_min=25 scenecut=40 intra_refresh=0 rc_lookahead=50 rc=cbr mbtree=1 bitrate=12000 ratetol=1.0 qcomp=0.60 qpmin=0 qpmax=69 qpstep=4 vbv_maxrate=12000 vbv_bufsize=12000 nal_hrd=none filler=0 ip_ratio=1.40 aq=1:1.00\nOutput #0, mp4, to 'C:\\Users\\Peter\\Desktop\\stuff\\MIUN\\quantitative_research\\video_compression\\compressed_videos\\BVI-HD\\h264\\12\\BallUnderWater_1920x1080_60fps_h264.mp4':\n  Metadata:\n    major_brand     : isom\n    minor_version   : 512\n    compatible_brands: isomiso2avc1mp41\n    encoder         : Lavf62.3.100\n  Stream #0:0(und): Video: h264 (avc1 / 0x31637661), yuv420p(tv, progressive), 1920x1080, q=2-31, 12000 kb/s, 60 fps, 15360 tbn (default)\n    Metadata:\n      encoder         : Lavc62.11.100 libx264\n      handler_name    : VideoHandler\n      vendor_id       : [0][0][0][0]\n    Side data:\n      cpb: bitrate max/min/avg: 12000000/0/12000000 buffer size: 12000000 vbv_delay: N/A\nframe=    0 fps=0.0 q=0.0 size=       0KiB time=N/A bitrate=N/A speed=N/A elapsed=0:00:01.13    \nframe=    0 fps=0.0 q=0.0 size=       0KiB time=N/A bitrate=N/A speed=N/A elapsed=0:00:01.71    \nframe=    0 fps=0.0 q=0.0 size=       0KiB time=N/A bitrate=N/A speed=N/A elapsed=0:00:02.26    \nframe=    0 fps=0.0 q=0.0 size=       0KiB time=N/A bitrate=N/A speed=N/A elapsed=0:00:02.79    \nframe=    0 fps=0.0 q=0.0 size=       0KiB time=N/A bitrate=N/A speed=N/A elapsed=0:00:03.32    \nframe=    0 fps=0.0 q=0.0 size=       0KiB time=N/A bitrate=N/A speed=N/A elapsed=0:00:03.84    \nframe=    0 fps=0.0 q=0.0 size=       0KiB time=N/A bitrate=N/A speed=N/A elapsed=0:00:04.36    \nframe=    0 fps=0.0 q=0.0 size=       0KiB time=N/A bitrate=N/A speed=N/A elapsed=0:00:04.90    \nframe=    0 fps=0.0 q=0.0 size=       0KiB time=N/A bitrate=N/A speed=N/A elapsed=0:00:05.46    \nframe=    0 fps=0.0 q=0.0 size=       0KiB time=N/A bitrate=N/A speed=N/A elapsed=0:00:05.99    \nframe=    0 fps=0.0 q=0.0 size=       0KiB time=N/A bitrate=N/A speed=N/A elapsed=0:00:06.52    \nframe=    0 fps=0.0 q=0.0 size=       0KiB time=N/A bitrate=N/A speed=N/A elapsed=0:00:07.18    \nframe=    0 fps=0.0 q=0.0 size=       0KiB time=N/A bitrate=N/A speed=N/A elapsed=0:00:07.85    \nframe=    0 fps=0.0 q=0.0 size=       0KiB time=N/A bitrate=N/A speed=N/A elapsed=0:00:08.40    \nframe=    0 fps=0.0 q=0.0 size=       0KiB time=N/A bitrate=N/A speed=N/A elapsed=0:00:08.98    \nframe=    1 fps=0.1 q=29.0 size=       0KiB time=-00:00:00.01 bitrate=N/A speed=N/A elapsed=0:00:09.53    \nframe=    1 fps=0.1 q=29.0 size=       0KiB time=-00:00:00.01 bitrate=N/A speed=N/A elapsed=0:00:10.04    \nframe=    5 fps=0.5 q=30.0 size=       0KiB time=00:00:00.05 bitrate=   7.7kbits/s speed=0.00473x elapsed=0:00:10.56    \nframe=    5 fps=0.5 q=30.0 size=       0KiB time=00:00:00.05 bitrate=   7.7kbits/s speed=0.0045x elapsed=0:00:11.10    \nframe=    6 fps=0.5 q=31.0 size=       0KiB time=00:00:00.06 bitrate=   5.8kbits/s speed=0.00569x elapsed=0:00:11.71    \nframe=    8 fps=0.6 q=30.0 size=       0KiB time=00:00:00.10 bitrate=   3.8kbits/s speed=0.00803x elapsed=0:00:12.45    \nframe=    8 fps=0.6 q=30.0 size=       0KiB time=00:00:00.10 bitrate=   3.8kbits/s speed=0.00768x elapsed=0:00:13.01    \nframe=    9 fps=0.7 q=30.0 size=       0KiB time=00:00:00.11 bitrate=   3.3kbits/s speed=0.00858x elapsed=0:00:13.60    \nframe=   11 fps=0.8 q=30.0 size=     256KiB time=00:00:00.15 bitrate=13983.6kbits/s speed=0.0106x elapsed=0:00:14.17    \nframe=   11 fps=0.7 q=30.0 size=     256KiB time=00:00:00.15 bitrate=13983.6kbits/s speed=0.0102x elapsed=0:00:14.77    \nframe=   11 fps=0.7 q=30.0 size=     256KiB time=00:00:00.15 bitrate=13983.6kbits/s speed=0.0098x elapsed=0:00:15.30    \nframe=   12 fps=0.8 q=30.0 size=     256KiB time=00:00:00.16 bitrate=12585.2kbits/s speed=0.0105x elapsed=0:00:15.85    \nframe=   15 fps=0.9 q=30.0 size=     256KiB time=00:00:00.21 bitrate=9680.9kbits/s speed=0.0132x elapsed=0:00:16.40    \nframe=   21 fps=1.2 q=30.0 size=     512KiB time=00:00:00.31 bitrate=13246.4kbits/s speed=0.0187x elapsed=0:00:16.97    \nframe=   29 fps=1.7 q=29.0 size=     512KiB time=00:00:00.45 bitrate=9321.5kbits/s speed=0.0257x elapsed=0:00:17.54    \nframe=   31 fps=1.7 q=29.0 size=     768KiB time=00:00:00.48 bitrate=13017.6kbits/s speed=0.0267x elapsed=0:00:18.09    \nframe=   31 fps=1.7 q=29.0 size=     768KiB time=00:00:00.48 bitrate=13017.6kbits/s speed=0.026x elapsed=0:00:18.62    \nframe=   31 fps=1.6 q=29.0 size=     768KiB time=00:00:00.48 bitrate=13017.6kbits/s speed=0.0252x elapsed=0:00:19.19    \nframe=   31 fps=1.6 q=29.0 size=     768KiB time=00:00:00.48 bitrate=13017.6kbits/s speed=0.0243x elapsed=0:00:19.88    \nframe=   39 fps=1.9 q=29.0 size=     768KiB time=00:00:00.61 bitrate=10203.0kbits/s speed=0.0301x elapsed=0:00:20.49    \nframe=   42 fps=2.0 q=29.0 size=    1024KiB time=00:00:00.66 bitrate=12583.5kbits/s speed=0.0317x elapsed=0:00:21.05    \nframe=   50 fps=2.3 q=29.0 size=    1024KiB time=00:00:00.80 bitrate=10486.2kbits/s speed=0.037x elapsed=0:00:21.61    \nframe=   54 fps=2.4 q=29.0 size=    1280KiB time=00:00:00.80 bitrate=13107.7kbits/s speed=0.0359x elapsed=0:00:22.26    \nframe=   59 fps=2.6 q=29.0 size=    1280KiB time=00:00:00.95 bitrate=11038.0kbits/s speed=0.0414x elapsed=0:00:22.96    \nframe=   60 fps=2.5 q=28.0 size=    1280KiB time=00:00:00.96 bitrate=10847.7kbits/s speed=0.0409x elapsed=0:00:23.65    \nframe=   62 fps=2.5 q=28.0 size=    1280KiB time=00:00:00.98 bitrate=10663.9kbits/s speed=0.0404x elapsed=0:00:24.34    \nframe=   62 fps=2.5 q=28.0 size=    1280KiB time=00:00:01.00 bitrate=10486.1kbits/s speed=0.0399x elapsed=0:00:25.06    \nframe=   67 fps=2.6 q=29.0 size=    1536KiB time=00:00:01.06 bitrate=11796.8kbits/s speed=0.0414x elapsed=0:00:25.73    \nframe=   73 fps=2.8 q=29.0 size=    1536KiB time=00:00:01.16 bitrate=10785.7kbits/s speed=0.0441x elapsed=0:00:26.47    \nframe=   78 fps=2.9 q=28.0 size=    1792KiB time=00:00:01.25 bitrate=11744.4kbits/s speed=0.0458x elapsed=0:00:27.26    \nframe=   84 fps=3.0 q=28.0 size=    1792KiB time=00:00:01.33 bitrate=11010.3kbits/s speed=0.0475x elapsed=0:00:28.05    \nframe=   89 fps=3.1 q=28.0 size=    2048KiB time=00:00:01.38 bitrate=12128.4kbits/s speed=0.0479x elapsed=0:00:28.87    \nframe=   95 fps=3.2 q=29.0 size=    2304KiB time=00:00:01.50 bitrate=12583.2kbits/s speed=0.0505x elapsed=0:00:29.72    \nframe=   99 fps=3.3 q=29.0 size=    2304KiB time=00:00:01.61 bitrate=11675.1kbits/s speed=0.0531x elapsed=0:00:30.43    \nframe=  104 fps=3.4 q=29.0 size=    2560KiB time=00:00:01.68 bitrate=12458.6kbits/s speed=0.0543x elapsed=0:00:30.98    \nframe=  106 fps=3.3 q=29.0 size=    2560KiB time=00:00:01.70 bitrate=12336.4kbits/s speed=0.0537x elapsed=0:00:31.68    \nframe=  114 fps=3.5 q=29.0 size=    2816KiB time=00:00:01.83 bitrate=12583.1kbits/s speed=0.0564x elapsed=0:00:32.48    \nframe=  118 fps=3.5 q=28.0 size=    2816KiB time=00:00:01.93 bitrate=11932.3kbits/s speed=0.058x elapsed=0:00:33.31    \nframe=  123 fps=3.6 q=29.0 size=    3072KiB time=00:00:02.01 bitrate=12479.1kbits/s speed=0.059x elapsed=0:00:34.17    \nframe=  126 fps=3.6 q=29.0 size=    3072KiB time=00:00:02.06 bitrate=12177.2kbits/s speed=0.0589x elapsed=0:00:35.07    \nframe=  130 fps=3.6 q=29.0 size=    3072KiB time=00:00:02.08 bitrate=12079.8kbits/s speed=0.058x elapsed=0:00:35.92    \nframe=  136 fps=3.7 q=29.0 size=    3328KiB time=00:00:02.21 bitrate=12299.3kbits/s speed=0.0603x elapsed=0:00:36.74    \nframe=  141 fps=3.8 q=29.0 size=    3328KiB time=00:00:02.28 bitrate=11940.2kbits/s speed=0.0609x elapsed=0:00:37.46    \nframe=  146 fps=3.8 q=29.0 size=    3584KiB time=00:00:02.38 bitrate=12319.1kbits/s speed=0.0623x elapsed=0:00:38.24    \nframe=  152 fps=3.9 q=29.0 size=    3584KiB time=00:00:02.48 bitrate=11823.0kbits/s speed=0.0637x elapsed=0:00:38.99    \nframe=  158 fps=4.0 q=29.0 size=    3840KiB time=00:00:02.58 bitrate=12177.2kbits/s speed=0.065x elapsed=0:00:39.73    \nframe=  165 fps=4.1 q=29.0 size=    4096KiB time=00:00:02.70 bitrate=12427.7kbits/s speed=0.0666x elapsed=0:00:40.54    \nframe=  172 fps=4.2 q=29.0 size=    4096KiB time=00:00:02.80 bitrate=11983.9kbits/s speed=0.0676x elapsed=0:00:41.42    \nframe=  178 fps=4.2 q=29.0 size=    4352KiB time=00:00:02.91 bitrate=12223.5kbits/s speed=0.0691x elapsed=0:00:42.21    \nframe=  185 fps=4.3 q=29.0 size=    4608KiB time=00:00:03.03 bitrate=12444.8kbits/s speed=0.0705x elapsed=0:00:43.04    \nframe=  191 fps=4.4 q=29.0 size=    4608KiB time=00:00:03.11 bitrate=12112.0kbits/s speed=0.0712x elapsed=0:00:43.77    \nframe=  196 fps=4.4 q=29.0 size=    4864KiB time=00:00:03.21 bitrate=12387.4kbits/s speed=0.0722x elapsed=0:00:44.57    \nframe=  200 fps=4.4 q=29.0 size=    4864KiB time=00:00:03.30 bitrate=12074.6kbits/s speed=0.0727x elapsed=0:00:45.40    \nframe=  203 fps=4.4 q=29.0 size=    4864KiB time=00:00:03.33 bitrate=11953.9kbits/s speed=0.0723x elapsed=0:00:46.13    \nframe=  209 fps=4.5 q=29.0 size=    5120KiB time=00:00:03.45 bitrate=12157.5kbits/s speed=0.0736x elapsed=0:00:46.90    \nframe=  215 fps=4.5 q=29.0 size=    5120KiB time=00:00:03.55 bitrate=11815.0kbits/s speed=0.0747x elapsed=0:00:47.53    \nframe=  221 fps=4.6 q=29.0 size=    5376KiB time=00:00:03.61 bitrate=12177.1kbits/s speed=0.0749x elapsed=0:00:48.26    \nframe=  228 fps=4.6 q=29.0 size=    5632KiB time=00:00:03.73 bitrate=12358.3kbits/s speed=0.076x elapsed=0:00:49.15    \nframe=  235 fps=4.7 q=29.0 size=    5632KiB time=00:00:03.83 bitrate=12035.9kbits/s speed=0.0768x elapsed=0:00:49.88    \nframe=  246 fps=4.9 q=29.0 size=    5888KiB time=00:00:04.03 bitrate=11959.1kbits/s speed=0.0796x elapsed=0:00:50.64    \nframe=  249 fps=4.8 q=29.0 size=    6144KiB time=00:00:04.10 bitrate=12276.1kbits/s speed=0.0798x elapsed=0:00:51.36    \nframe=  256 fps=4.9 q=29.0 size=    6144KiB time=00:00:04.16 bitrate=12079.7kbits/s speed=0.08x elapsed=0:00:52.05    \nframe=  265 fps=5.0 q=30.0 size=    6400KiB time=00:00:04.36 bitrate=12006.7kbits/s speed=0.0827x elapsed=0:00:52.78    \nframe=  268 fps=5.0 q=29.0 size=    6400KiB time=00:00:04.41 bitrate=11870.8kbits/s speed=0.0825x elapsed=0:00:53.51    \nframe=  275 fps=5.1 q=28.0 size=    6656KiB time=00:00:04.55 bitrate=11983.8kbits/s speed=0.0839x elapsed=0:00:54.23    \nframe=  288 fps=5.2 q=-1.0 size=    6912KiB time=00:00:04.76 bitrate=11879.1kbits/s speed=0.0868x elapsed=0:00:54.91    \nframe=  295 fps=5.3 q=-1.0 size=    7168KiB time=00:00:04.88 bitrate=12024.7kbits/s speed=0.0879x elapsed=0:00:55.58    \nframe=  300 fps=5.3 q=-1.0 size=    7168KiB time=00:00:04.95 bitrate=11862.8kbits/s speed=0.088x elapsed=0:00:56.23    \n[mp4 @ 0000014454081680] Starting second pass: moving the moov atom to the beginning of the file\n[out#0/mp4 @ 0000014454081580] video:7386KiB audio:0KiB subtitle:0KiB other streams:0KiB global headers:0KiB muxing overhead: 0.037324%\nframe=  300 fps=5.3 q=-1.0 Lsize=    7389KiB time=00:00:04.96 bitrate=12187.3kbits/s speed=0.0881x elapsed=0:00:56.37    \n[libx264 @ 000001445468ebc0] frame I:3     Avg QP:21.56  size: 60890\n[libx264 @ 000001445468ebc0] frame P:238   Avg QP:25.07  size: 26159\n[libx264 @ 000001445468ebc0] frame B:59    Avg QP:25.27  size: 19563\n[libx264 @ 000001445468ebc0] consecutive B-frames: 73.3%  0.7%  2.0% 24.0%\n[libx264 @ 000001445468ebc0] mb I  I16..4:  7.1% 92.0%  0.8%\n[libx264 @ 000001445468ebc0] mb P  I16..4: 22.6% 31.8%  0.2%  P16..4: 30.5%  2.7%  0.9%  0.0%  0.0%    skip:11.3%\n[libx264 @ 000001445468ebc0] mb B  I16..4:  5.7%  8.6%  0.0%  B16..8: 39.5%  5.4%  0.7%  direct: 7.2%  skip:32.9%  L0:51.1% L1:45.0% BI: 3.9%\n[libx264 @ 000001445468ebc0] 8x8 transform intra:59.1% inter:94.4%\n[libx264 @ 000001445468ebc0] direct mvs  spatial:84.7% temporal:15.3%\n[libx264 @ 000001445468ebc0] coded y,uvDC,uvAC intra: 28.7% 41.3% 1.7% inter: 17.4% 39.0% 0.1%\n[libx264 @ 000001445468ebc0] i16 v,h,dc,p: 15% 20% 15% 50%\n[libx264 @ 000001445468ebc0] i8 v,h,dc,ddl,ddr,vr,hd,vl,hu: 13% 11% 36%  4% 12%  8%  8%  3%  5%\n[libx264 @ 000001445468ebc0] i4 v,h,dc,ddl,ddr,vr,hd,vl,hu: 11%  9% 24%  7% 17% 10% 11%  5%  7%\n[libx264 @ 000001445468ebc0] i8c dc,h,v,p: 48% 31% 19%  3%\n[libx264 @ 000001445468ebc0] Weighted P-Frames: Y:5.9% UV:2.1%\n[libx264 @ 000001445468ebc0] ref P L0: 55.4%  9.8% 16.4%  7.8%  5.9%  4.5%  0.2%\n[libx264 @ 000001445468ebc0] ref B L0: 73.2% 16.8%  7.6%  2.4%\n[libx264 @ 000001445468ebc0] ref B L1: 91.9%  8.1%\n[libx264 @ 000001445468ebc0] kb/s:12100.31\n",
  "seconds": 58.13475441932678,
  "probe_out": {}
}